<svg xmlns="http://www.w3.org/2000/svg" xmlns:xlink="http://www.w3.org/1999/xlink" width="171.5" height="1162.982" viewBox="-1 0 171.5 1162.982"><defs><path id="a" d="M0 389.183h26v21.565H0z"/></defs><clipPath id="b"><use xlink:href="#a" overflow="visible"/></clipPath><path clip-path="url(#b)" fill="#155566" d="M17.5 391.248l-6.5 4.5c-2.375-1.475-3.092-2.04-3.621-2.368l-1.357-.003a3.09 3.09 0 0 0-2.888-4.194 3.1 3.1 0 0 0-3.107 3.092 3.103 3.103 0 0 0 3.105 3.105l3.526.162 1.968 1.843-2.311 1.605c-.06.003-3.735.222-3.793.23a3.097 3.097 0 0 0 .569 6.142 3.1 3.1 0 0 0 3.107-3.09 3.087 3.087 0 0 0-.21-1.123l.955.002c1.112-.652 11.444-6.251 12.557-6.906l.5-2.5-2.5-.497zm-16.03 1.029a1.657 1.657 0 0 1 3.312.009 1.663 1.663 0 0 1-1.661 1.652 1.658 1.658 0 0 1-1.651-1.661m3.285 9.994a1.658 1.658 0 0 1-1.661 1.65 1.659 1.659 0 0 1-1.651-1.662 1.66 1.66 0 0 1 1.66-1.65c.481.002.912.211 1.214.539.272.295.439.69.438 1.123"/><defs><path id="c" d="M0 389.183h26v21.565H0z"/></defs><clipPath id="d"><use xlink:href="#c" overflow="visible"/></clipPath><path clip-path="url(#d)" fill="#155566" d="M16 404.748h3l-1-3.5-4-2.5-3 2z"/><defs><path id="e" d="M0 389.183h26v21.565H0z"/></defs><clipPath id="f"><use xlink:href="#e" overflow="visible"/></clipPath><path clip-path="url(#f)" fill="#155566" d="M24 401.748h2v4h-2z"/><defs><path id="g" d="M0 389.183h26v21.565H0z"/></defs><clipPath id="h"><use xlink:href="#g" overflow="visible"/></clipPath><path clip-path="url(#h)" fill="#155566" d="M24 396.748h-2v2h2v2h2v-4z"/><defs><path id="i" d="M0 389.183h26v21.565H0z"/></defs><clipPath id="j"><use xlink:href="#i" overflow="visible"/></clipPath><path clip-path="url(#j)" fill="#155566" d="M24 406.748v2h-2v2h4v-4z"/><defs><path id="k" d="M0 389.183h26v21.565H0z"/></defs><clipPath id="l"><use xlink:href="#k" overflow="visible"/></clipPath><path clip-path="url(#l)" fill="#155566" d="M9 408.748v-2H7v4h4v-2z"/><defs><path id="m" d="M0 389.183h26v21.565H0z"/></defs><clipPath id="n"><use xlink:href="#m" overflow="visible"/></clipPath><path clip-path="url(#n)" fill="#155566" d="M17 408.748h4v2h-4z"/><g><defs><path id="o" d="M0 389.183h26v21.565H0z"/></defs><clipPath id="p"><use xlink:href="#o" overflow="visible"/></clipPath><path clip-path="url(#p)" fill="#155566" d="M19 396.748h2v2h-2z"/></g><g><defs><path id="q" d="M0 389.183h26v21.565H0z"/></defs><clipPath id="r"><use xlink:href="#q" overflow="visible"/></clipPath><path clip-path="url(#r)" fill="#155566" d="M12 408.748h4v2h-4z"/></g><g><defs><path id="s" d="M0 520.5h20v21H0z"/></defs><clipPath id="t"><use xlink:href="#s" overflow="visible"/></clipPath><path clip-path="url(#t)" fill="#128899" d="M13 536.5H7v1h6v-1zm0-2H7v1h6v-1zm5-10h-1v-1c0-1.938-.969-3-3-3H6c-1.969 0-3 1.017-3 3v1H2c-1.106 0-2 .94-2 2v5c0 1.059.894 2 2 2h1v5c0 1.969 1 3 3 3h8c2 0 3-1 3-3v-5h1c1.104 0 2-.941 2-2v-5c0-1.06-.896-2-2-2m-3 13c0 2.031.006 2-2 2H7c-1.999 0-2-.001-2-2v-4h10v4zm-10-13v-.009c0-1.984.002-1.991 2-1.991h6c2.006 0 2 .026 2 2H5z"/></g><g><defs><path id="u" d="M150 521.5h20v21h-20z"/></defs><clipPath id="v"><use xlink:href="#u" overflow="visible"/></clipPath><path clip-path="url(#v)" fill="#CB2026" d="M163 537.5h-6v1h6v-1zm0-2h-6v1h6v-1zm5-10h-1v-1c0-1.938-.969-3-3-3h-8c-1.969 0-3 1.017-3 3v1h-1c-1.106 0-2 .94-2 2v5c0 1.059.894 2 2 2h1v5c0 1.969 1 3 3 3h8c2 0 3-1 3-3v-5h1c1.104 0 2-.941 2-2v-5c0-1.06-.896-2-2-2m-3 13c0 2.031.006 2-2 2h-6c-1.999 0-2-.001-2-2v-4h10v4zm-10-13v-.009c0-1.984.002-1.991 2-1.991h6c2.006 0 2 .026 2 2h-10z"/></g><path fill="#A4A2A3" d="M0 649.166h8l-4 4z"/><path fill="#128899" d="M0 774.854v-15.77l9.301 7.885zM159.301 760.082v15.77L150 767.967z"/><g><path fill="none" d="M-1 649"/></g><g><path fill="#C00" d="M159.984 0c-5.523 0-10 4.479-10 9.998a9.998 9.998 0 0 0 10 10.002c5.531 0 10-4.479 10-10.002 0-5.521-4.478-9.998-10-9.998z"/><path fill="#FFF" d="M161.567 6.483c0 .574-.225 1.261-.406 1.821-.322.967-.631 1.947-.674 2.97-.014.294-.033.288-.453.288-.42 0-.541.006-.555-.288-.041-1.022-.35-2.003-.672-2.97-.182-.561-.406-1.247-.406-1.821 0-.994.49-1.933 1.582-1.933 1.094.001 1.584.939 1.584 1.933zm-1.513 8.965c-.869 0-1.512-.7-1.512-1.513s.643-1.513 1.512-1.513 1.514.7 1.514 1.513-.645 1.513-1.514 1.513z"/></g><g><path fill="#900" d="M10 0C4.477 0 0 4.479 0 9.998A9.998 9.998 0 0 0 10 20c5.531 0 10-4.479 10-10.002C20 4.477 15.521 0 10 0z"/><path fill="#FFF" d="M11.583 6.483c0 .574-.225 1.261-.406 1.821-.322.967-.631 1.947-.674 2.97-.014.294-.033.288-.453.288-.42 0-.541.006-.555-.288-.041-1.022-.35-2.003-.672-2.97-.181-.56-.406-1.246-.406-1.821 0-.994.49-1.933 1.582-1.933 1.094.001 1.584.939 1.584 1.933zm-1.514 8.965c-.869 0-1.512-.7-1.512-1.513s.643-1.513 1.512-1.513 1.514.7 1.514 1.513-.645 1.513-1.514 1.513z"/></g><g><path fill="#156" d="M10 130c-5.523 0-10 4.479-10 9.999A9.995 9.995 0 0 0 10 150c5.531 0 10-4.479 10-10.001S15.52 130 10 130z"/><path fill="#FFF" d="M7.895 140.109s-.303-.023-.303-.704c0-.681.303-.782.303-.782h3.197v5.416h1.432v1.5H7.475v-1.5H8.83v-3.93h-.935zm.527-4.125c0-.418.148-.775.447-1.076a1.45 1.45 0 0 1 1.074-.447c.424 0 .785.149 1.078.447.295.301.441.658.441 1.076 0 .421-.148.777-.445 1.073a1.465 1.465 0 0 1-1.074.444c-.414 0-.771-.149-1.072-.45a1.453 1.453 0 0 1-.449-1.067z"/></g><g><path fill="#189" d="M160.5 130c-5.523 0-10 4.479-10 9.999a9.995 9.995 0 0 0 10 10.001c5.531 0 10-4.479 10-10.001s-4.48-9.999-10-9.999z"/><path fill="#FFF" d="M158.395 140.109s-.303-.023-.303-.704c0-.681.303-.782.303-.782h3.197v5.416h1.432v1.5h-5.049v-1.5h1.355v-3.93h-.935zm.527-4.125c0-.418.148-.775.447-1.076a1.45 1.45 0 0 1 1.074-.447c.424 0 .785.149 1.078.447.295.301.441.658.441 1.076 0 .421-.148.777-.445 1.073a1.465 1.465 0 0 1-1.074.444c-.414 0-.771-.149-1.072-.45a1.453 1.453 0 0 1-.449-1.067z"/></g><path fill="#189" d="M8.5 260a8.502 8.502 0 0 0-8.5 8.499A8.497 8.497 0 0 0 8.5 277c4.701 0 8.5-3.807 8.5-8.501A8.502 8.502 0 0 0 8.5 260z"/><path fill="#FFF" d="M9.5 272.5h-2v-3h-3v-2h3v-3h2v3h3v2h-3z"/><path fill="#189" d="M158.484 260a8.502 8.502 0 0 0-8.5 8.499 8.497 8.497 0 0 0 8.5 8.501 8.501 8.501 0 0 0 0-17z"/><path fill="#FFF" d="M154.984 267.5h7v2h-7z"/><path fill="none" stroke="#888" stroke-width="2" d="M5.167 1018l8.667 10-8.667 10M13.833 938l-8.667-10 8.667-10"/><circle fill="#43BA51" cx="11" cy="1147.982" r="12"/><g><path fill="#FFF" d="M16.594 1147.424l-6.599 6.602-3.667-3.667v-4.4l3.667 3.656 6.599-6.589v4.398z"/></g></svg>