<svg xmlns="http://www.w3.org/2000/svg" width="300" height="1350" viewBox="0 0 300 1350"><path fill="#FFF" d="M0 1312h18v-2H0v2zm0-5h18v-2H0v2zm0-5h18v-2H0v2z"/><path fill="none" stroke="#333" stroke-width="2" d="M11 1201l-5 4.332L1 1201"/><path fill="#A0A0A0" d="M5.315 1104l2.553-2.553c.306-.312.033-.622-.331-.985-.363-.36-.678-.636-.983-.33L4 1102.688l-2.553-2.556c-.306-.306-.622-.031-.985.33-.363.363-.636.68-.33.985L2.686 1104l-2.552 2.554c-.307.312-.035.622.329.983.364.363.68.636.985.33L4 1105.314l2.553 2.553c.306.306.622.033.983-.33.363-.363.637-.678.33-.983L5.315 1104z"/><path fill="#F0F0F0" d="M2.866 1006.681c-1.146-1.225-1.737-2.479-1.328-2.896l.342-.345c.322-.319 1.169-.024 2.109.671l2.125-2.123c-.533-.707-.785-1.297-.59-1.488l.433-.436c.283-.281 1.402.381 2.5 1.479 1.099 1.104 1.761 2.217 1.479 2.5l-.433.438c-.195.188-.783-.062-1.489-.598l-2.124 2.123c.696.941.991 1.789.669 2.109l-.342.344c-.41.408-1.673-.182-2.897-1.328l-1.226 1.229L.151 1010l-.151-.151 1.64-1.938 1.226-1.23z"/><path fill="#189" d="M2.866 906.681c-1.146-1.225-1.737-2.479-1.328-2.896l.342-.345c.322-.319 1.169-.024 2.109.671l2.125-2.123c-.533-.707-.785-1.297-.59-1.488l.433-.435c.283-.282 1.402.38 2.5 1.479 1.099 1.104 1.761 2.217 1.479 2.5l-.433.438c-.195.188-.783-.062-1.489-.599l-2.124 2.123c.696.941.991 1.789.669 2.109l-.342.344c-.41.408-1.673-.182-2.897-1.328l-1.226 1.229L.151 910 0 909.849l1.64-1.938 1.226-1.23z"/><path fill="#A0A0A0" d="M2.866 806.681c-1.146-1.225-1.737-2.479-1.328-2.896l.342-.345c.322-.319 1.169-.024 2.109.671l2.125-2.123c-.533-.707-.785-1.297-.59-1.488l.433-.435c.283-.282 1.402.38 2.5 1.479 1.099 1.104 1.761 2.217 1.479 2.5l-.433.438c-.195.188-.783-.062-1.489-.599l-2.124 2.123c.696.941.991 1.789.669 2.109l-.342.344c-.41.408-1.673-.182-2.897-1.328l-1.226 1.229L.151 810 0 809.849l1.64-1.938 1.226-1.23z"/><g fill="none" stroke="#C00" stroke-miterlimit="10"><path d="M200 703l6-3 6 3M200 706l6-3 6 3"/></g><g fill="none" stroke="#C00" stroke-miterlimit="10"><path d="M12 703l-6 3-6-3M12 700l-6 3-6-3"/></g><path fill="#555" d="M13.786 611.814l-3.152-3.15a.763.763 0 0 0-.876-.137l-.673-.687a4.98 4.98 0 0 0 .914-2.854C9.994 602.25 7.753 600 4.997 600S0 602.25 0 605.001a5.003 5.003 0 0 0 4.997 4.995 4.954 4.954 0 0 0 2.858-.903l.679.688a.72.72 0 0 0 .13.853l3.15 3.148a.735.735 0 0 0 1.045 0l.927-.914a.758.758 0 0 0 0-1.054zm-8.789-3.664c-1.737 0-3.146-1.411-3.146-3.129a3.15 3.15 0 0 1 3.146-3.146 3.15 3.15 0 0 1 3.147 3.146c.002 1.719-1.41 3.129-3.147 3.129z"/><g fill="#C00"><path d="M207.938 503.897c-1.17 0-2.123.95-2.123 2.118a2.123 2.123 0 1 0 4.244 0 2.124 2.124 0 0 0-2.121-2.118z"/><path d="M208.001 500L200 508.001l8.003 8 7.997-7.998-7.999-8.003zm0 1.455l6.544 6.548-2.623 2.623-2.035-2.036a2.852 2.852 0 0 1-1.949.766 2.86 2.86 0 0 1-1.953-.766l-1.969 1.97-2.561-2.559 6.546-6.546z"/></g><g fill="#FFF"><path d="M7.938 503.897a2.122 2.122 0 0 0-2.123 2.118c0 1.174.953 2.123 2.123 2.123s2.121-.953 2.121-2.123a2.123 2.123 0 0 0-2.121-2.118z"/><path d="M8 500l-8 8.001 8.002 8L16 508.003 8 500zm0 1.455l6.545 6.548-2.624 2.623-2.036-2.037a2.865 2.865 0 0 1-1.949.769 2.878 2.878 0 0 1-1.953-.769l-1.969 1.97L1.453 508 8 501.455z"/></g><path fill="#C00" d="M213.786 411.814l-3.152-3.15a.763.763 0 0 0-.876-.137l-.673-.687a4.98 4.98 0 0 0 .914-2.854c-.005-2.74-2.246-4.99-5.002-4.99S200 402.25 200 405.001a5.003 5.003 0 0 0 4.997 4.995 4.954 4.954 0 0 0 2.858-.903l.679.688a.72.72 0 0 0 .13.853l3.15 3.148a.735.735 0 0 0 1.045 0l.927-.914a.758.758 0 0 0 0-1.054zm-8.789-3.664c-1.737 0-3.146-1.411-3.146-3.129a3.15 3.15 0 0 1 3.146-3.146 3.15 3.15 0 0 1 3.147 3.146c.002 1.719-1.41 3.129-3.147 3.129z"/><path fill="#FFF" d="M13.786 411.814l-3.152-3.15a.763.763 0 0 0-.876-.137l-.673-.687a4.98 4.98 0 0 0 .914-2.854C9.994 402.25 7.753 400 4.997 400S0 402.25 0 405.001a5.003 5.003 0 0 0 4.997 4.995 4.952 4.952 0 0 0 2.858-.903l.679.688a.72.72 0 0 0 .13.853l3.151 3.148a.735.735 0 0 0 1.045 0l.926-.914a.757.757 0 0 0 0-1.054zm-8.789-3.664c-1.737 0-3.146-1.411-3.146-3.129a3.15 3.15 0 0 1 3.146-3.146 3.15 3.15 0 0 1 3.148 3.146c.001 1.719-1.41 3.129-3.148 3.129z"/><path fill="#C00" d="M214 307.001c0-.866-.161-1.691-.45-2.455a8.546 8.546 0 0 1-1.021 2.707 9.67 9.67 0 0 1 .437 3.396 6.955 6.955 0 0 0 1.034-3.648zm-3.089-5.802a9.504 9.504 0 0 1-.904 1.937c.075.072.157.132.231.207.748.747 1.348 1.646 1.798 2.609a7.061 7.061 0 0 0 .601-3.095 7.098 7.098 0 0 0-1.726-1.658zm-5.117 9.483c.61-.062.617-2.042.533-2.538-.179-1.083.178-1.111-4.19-.609-.712.081-1.434-.083-2.137-.249a6.933 6.933 0 0 0 .716 2.803l.009-.015c1.55.736 4.455.672 5.069.608zm3.806-1.372c.805-.528 1.293-1.438 1.787-2.186-.412-1.141-1.043-2.196-1.891-3.042-.03-.03-.068-.055-.098-.086-3.733 4.109-2.064 1.515-2.211 3.848-.171 2.617-.708 3.544 2.413 1.466zm-5.196 2.639a9.58 9.58 0 0 1-2.74-.414 6.98 6.98 0 0 0 3.572 2.229 8.135 8.135 0 0 0 .83-1.84c.017-.046.037-.091.047-.138-.049.011-.102.013-.16.018a8.635 8.635 0 0 1-1.549.145zm5.718-1.841c-1.2 1.062-3.067 1.259-3.081 1.539-.035.729-.419 1.79-.712 2.312.217.021.438.034.664.034a6.99 6.99 0 0 0 4.698-1.817c.306-1.229.302-2.523.05-3.771-.454.569-1.022 1.23-1.619 1.703zm-.14-9.431a6.972 6.972 0 0 0-2.991-.677c-1.05 0-2.042.237-2.933.65a9.266 9.266 0 0 1 5.145 1.809c.32-.56.588-1.154.779-1.782zm-4.037 3.74c.714 1.086.566 1.667 2.66-1.095-1.567-1.145-3.479-1.738-5.416-1.63a9.3 9.3 0 0 1 2.756 2.725zm-.043 1.543c.22-.373-3.979-3.781-3.979-3.781s-1.712 2.477-1.889 4.023c1.544.409 5.652.13 5.868-.242z"/><path fill="#FFF" d="M13.999 307c0-.866-.162-1.691-.451-2.454a8.556 8.556 0 0 1-1.021 2.706 9.954 9.954 0 0 1 .437 3.395A6.94 6.94 0 0 0 13.999 307zm-3.088-5.801a9.347 9.347 0 0 1-.904 1.937c.074.072.158.132.231.207a9.161 9.161 0 0 1 1.797 2.609 7.087 7.087 0 0 0 .598-3.095 7.064 7.064 0 0 0-1.722-1.658zm-5.118 9.482c.611-.062.618-2.042.533-2.538-.178-1.083.177-1.111-4.191-.609-.71.081-1.431-.083-2.136-.249a6.917 6.917 0 0 0 .716 2.803l.007-.015c1.553.736 4.458.672 5.071.608zm3.806-1.372c.806-.528 1.293-1.438 1.786-2.186-.413-1.14-1.041-2.195-1.889-3.042-.031-.03-.068-.055-.097-.086-3.734 4.104-2.066 1.515-2.212 3.848-.17 2.617-.709 3.544 2.412 1.466zm-5.195 2.639a9.642 9.642 0 0 1-2.741-.413 6.991 6.991 0 0 0 3.572 2.229 8.121 8.121 0 0 0 .826-1.84c.015-.046.037-.091.05-.138-.053.011-.107.013-.16.018a8.705 8.705 0 0 1-1.547.144zm5.717-1.841c-1.199 1.062-3.068 1.259-3.081 1.539-.033.729-.418 1.784-.712 2.312.217.027.438.04.664.04a6.979 6.979 0 0 0 4.697-1.817c.305-1.229.302-2.522.052-3.771-.455.563-1.023 1.224-1.62 1.697zm-.14-9.43a6.971 6.971 0 0 0-2.99-.677c-1.05 0-2.042.237-2.936.65a9.243 9.243 0 0 1 5.139 1.808 8.278 8.278 0 0 0 .787-1.781zm-4.039 3.74c.714 1.086.569 1.667 2.662-1.095-1.567-1.144-3.473-1.737-5.415-1.63a9.266 9.266 0 0 1 2.753 2.725zm-.04 1.543c.219-.373-3.98-3.78-3.98-3.78s-1.711 2.477-1.889 4.023c1.545.407 5.651.128 5.869-.243z"/><g fill="#C00"><path d="M206.318 212.312c0 .933-.745 1.688-1.668 1.688-.924 0-1.666-.756-1.666-1.688s.742-1.688 1.666-1.688a1.677 1.677 0 0 1 1.668 1.688M212.604 212.312c0 .933-.746 1.688-1.666 1.688-.916 0-1.668-.756-1.668-1.688s.746-1.688 1.668-1.688a1.678 1.678 0 0 1 1.666 1.688M212.273 209.827h-7.953l-1.771-7.904h-1.787c-.421 0-.762-.534-.762-.961 0-.428.341-.962.762-.962h3.379l1.772 7.967h6.36c.422 0 .761.535.761.961.002.428-.339.899-.761.899"/><path d="M213.999 202.366h-8.181l.994 4.587h5.95z"/></g><g fill="#FFF"><path d="M6.319 212.312c0 .933-.745 1.688-1.666 1.688-.916 0-1.663-.756-1.663-1.688s.745-1.688 1.663-1.688a1.677 1.677 0 0 1 1.666 1.688M12.604 212.312c0 .933-.746 1.688-1.666 1.688-.916 0-1.663-.756-1.663-1.688s.745-1.688 1.663-1.688a1.677 1.677 0 0 1 1.666 1.688M12.274 209.827H4.322l-1.772-7.904H.761c-.421 0-.761-.534-.761-.961 0-.428.341-.962.761-.962h3.38l1.773 7.967h6.359c.422 0 .762.535.762.961.002.428-.34.899-.761.899"/><path d="M14 202.366H5.819l.994 4.587h5.95z"/></g><g fill="#C00"><path d="M209.298 108.783l-1.667-1.667a.863.863 0 0 1-.218-.531l.014-2.803a.312.312 0 0 0-.31-.312l-.621-.003a.308.308 0 0 0-.311.309l-.021 3.322c0 .171.102.41.219.532l2.032 2.034c.12.122.313.122.438 0l.438-.439a.308.308 0 0 0 .007-.442z"/><path d="M207 100a6.963 6.963 0 0 0-5.059 2.176l-1.604-1.364-.337 4.658 4.545-1.077-1.177-1.003a5.097 5.097 0 0 1 3.632-1.523 5.139 5.139 0 0 1 5.133 5.133 5.139 5.139 0 0 1-5.133 5.133 5.134 5.134 0 0 1-4.486-2.644l-1.672.841A6.997 6.997 0 0 0 207 114c3.867 0 7-3.133 7-7a7 7 0 0 0-7-7z"/></g><g fill="#FFF"><path d="M9.299 108.783l-1.668-1.667a.863.863 0 0 1-.218-.531l.014-2.803a.311.311 0 0 0-.31-.312l-.622-.003a.309.309 0 0 0-.312.309l-.016 3.322c0 .171.097.41.218.532l2.035 2.034a.31.31 0 0 0 .44 0l.439-.439a.315.315 0 0 0 0-.442z"/><path d="M7 100a6.957 6.957 0 0 0-5.058 2.176L.34 100.812 0 105.47l4.544-1.077-1.177-1.003a5.098 5.098 0 0 1 3.632-1.523A5.139 5.139 0 0 1 12.132 107a5.139 5.139 0 0 1-5.133 5.133 5.134 5.134 0 0 1-4.486-2.644l-1.672.841A7 7 0 0 0 14 107a7 7 0 0 0-7-7z"/></g><path d="M54.672 9.578v13.576c0 1.438-.733 1.663-1.44 1.889v.481h6.267v-.481c-.705-.227-1.439-.447-1.439-1.889V9.578c0-.818.254-1.018 1.327-1.018 2.935 0 4.374.058 5.418 1.688l.366-.223-1.184-3.479h-15.27l-1.185 3.479.367.223c1.27-1.608 2.257-1.688 5.446-1.688 1.072.002 1.327.2 1.327 1.018zm7.14 1.947c.93.254 1.411.479 1.411 1.889v9.739c0 1.438-.478 1.663-1.411 1.889v.482h11.825l1.354-3.396-.369-.253c-1.185 1.561-2.427 1.918-4.063 1.918H67.51c-.958 0-1.184-.021-1.184-.961V18.77h3.696c1.439 0 1.664.342 1.892 1.188h.562v-4.062h-.562c-.228.848-.453 1.217-1.892 1.217h-3.696v-3.416c0-.707.226-.938 1.184-.938h2.597c1.664 0 2.541.428 3.81 1.776l.366-.252-1.184-3.246H61.812v.488zm15.209 1.666l3.614 5.104-3.417 4.854c-1.043 1.465-1.664 1.661-2.625 1.889v.479h5.477v-.479c-1.045-.198-1.497-.595-.791-1.691l2.392-3.733 2.519 3.629c.931 1.327-.058 1.688-.906 1.805v.482h9.905v-.482c-.988-.169-1.439-.509-.932-1.861l.645-1.688h5.929l.622 1.688c.396 1.104.254 1.692-.904 1.861v.482h6.097v-.482c-.706-.227-1.355-.812-1.664-1.638l-4.713-12.363h-3.217l-4.516 11.521c-.481 1.188-.917 1.76-1.397 2.084-.371-.235-.715-.604-1.17-1.236L84 17.78l3.208-4.532c.847-1.215 1.554-1.467 2.4-1.723v-.482h-5.167v.482c1.071.084 1.382.679.761 1.604l-2.238 3.315-2.022-3.036c-.847-1.241-.227-1.749.705-1.896v-.479H74.79v.479c.96.267 1.441.549 2.231 1.679zm18.907.364l2.319 6.323h-4.728l2.409-6.323zm10.048 11.968c0-.229.226-.709.507-.709.646.312 1.75.959 3.78.959 3.416 0 5.813-1.691 5.813-4.57 0-2.709-1.496-3.812-4.375-4.459l-2.624-.594c-1.495-.338-1.975-.771-1.975-1.692 0-1.073.845-1.778 2.709-1.778 2.086 0 3.725.989 4.909 2.354l.369-.254-1.072-3.729h-.678c0 .312-.14.649-.424.649-.623-.339-1.581-.873-3.217-.873-2.935 0-5.22 1.521-5.22 4.288 0 2.111 1.27 3.438 4.036 4.062l2.484.563c1.663.359 2.257.957 2.257 2.004 0 1.438-1.156 2.201-3.048 2.201-2.653 0-4.345-1.392-5.729-2.992l-.369.254 1.158 4.319.709-.003zM125.218 7.039c.875.253 1.579.479 1.579 1.891v14.229c0 1.438-.704 1.665-1.579 1.889v.479h6.548v-.479c-.875-.226-1.581-.448-1.581-1.889V8.93c0-1.415.706-1.64 1.581-1.891v-.48h-6.548v.48zm17.976 4.488c.846.253 1.327.479 1.327 1.89v5.928h-.084l-7.281-8.3h-4.26v.482c.847.359 1.412.646 1.412 1.889v9.738c0 1.354-.48 1.666-1.412 1.889v.482h4.825v-.482c-.762-.225-1.495-.534-1.495-1.889v-8.41h.084l9.624 10.979h.506V13.416c0-1.411.707-1.638 1.272-1.889v-.483h-4.515l-.003.483zm12.617 5.221l-2.625-.592c-1.496-.339-1.977-.771-1.977-1.693 0-1.068.848-1.78 2.708-1.78 2.089 0 3.728.99 4.912 2.354l.368-.254-1.071-3.729h-.679c0 .312-.141.65-.422.65-.623-.339-1.58-.873-3.217-.873-2.938 0-5.229 1.521-5.229 4.288 0 2.11 1.271 3.438 4.037 4.062l2.479.564c1.666.359 2.26.958 2.26 2.004 0 1.438-1.152 2.192-3.049 2.192-2.647 0-4.354-1.383-5.729-2.985l-.368.252 1.157 4.312h.706c0-.228.226-.703.507-.703.646.312 1.75.959 3.78.959 3.414 0 5.812-1.688 5.812-4.567.013-2.711-1.483-3.813-4.36-4.461zm5.22-5.702l-1.158 3.729.368.253c1.552-2.062 1.977-2.259 4.036-2.259.707 0 .931.057.931.931v9.456c0 1.438-.422 1.663-1.579 1.889v.481h6.211v-.481c-1.13-.227-1.583-.439-1.583-1.889V13.7c0-.874.228-.931.935-.931 2.062 0 2.604.19 4.147 2.259l.368-.253-1.156-3.729h-11.52zm25.144 10.19c-.875-1.411-1.774-2.034-2.819-2.288v-.085c2.481-.396 3.896-1.692 3.896-3.812 0-2.812-2.257-4.01-5.896-4.01h-7.422v.483c.938.252 1.414.479 1.414 1.889v9.74c0 1.438-.479 1.662-1.414 1.889v.481h6.065v-.481c-.875-.227-1.468-.449-1.468-1.889v-3.614h1.496c1.75 0 2.002.705 3.133 3.077.934 1.948 2.175 3.159 4.515 3.159 1.188 0 1.666-.229 2.146-.48v-.396c-1.895-.278-2.518-1.828-3.646-3.663zm-5.163-3.386h-2.484v-3.84c0-.933.229-1.184.938-1.184h1.604c1.75 0 2.771.678 2.771 2.37-.007 1.779-1.165 2.654-2.829 2.654zm18.004-6.323c.731.172 1.439.479 1.439 1.89v7.14c0 2.372-.903 3.418-3.584 3.418-2.85 0-3.868-1.046-3.868-3.418v-7.14c0-1.41.535-1.722 1.415-1.89v-.481h-5.925v.481c.872.141 1.437.479 1.437 1.89v7.369c0 3.863 3.357 4.995 6.521 4.995 3.527 0 6.037-1.188 6.037-5.229v-7.14c0-1.411.429-1.688 1.302-1.891v-.479h-4.771l-.003.485zm15.015 8.919l-4.18-9.4h-5.189v.481c.931.253 1.411.479 1.411 1.89v9.738c0 1.268-.537 1.604-1.411 1.889v.482h4.6v-.482c-.959-.251-1.382-.621-1.382-1.889v-9.087l5.22 11.684h.396l5.079-11.684v9.087c0 1.438-.621 1.688-1.325 1.889v.482h5.924v-.482c-.929-.226-1.41-.448-1.41-1.889v-9.738c0-1.41.481-1.638 1.41-1.89v-.481h-5.105l-4.038 9.4zm19.022 3.357h-3.048c-.959 0-1.185-.021-1.185-.957v-4.062h3.697c1.438 0 1.666.336 1.89 1.185h.563v-4.062h-.563c-.224.846-.449 1.215-1.89 1.215h-3.697v-3.415c0-.706.226-.934 1.185-.934h2.597c1.664 0 2.537.425 3.812 1.772l.363-.254-1.188-3.246H224.3v.483c.935.252 1.413.479 1.413 1.889v9.74c0 1.438-.479 1.664-1.413 1.888v.482h11.826l1.354-3.396-.369-.253c-1.181 1.56-2.423 1.925-4.058 1.925zm15.07-12.276c.845.253 1.328.479 1.328 1.89v5.928h-.088l-7.279-8.3h-4.264v.482c.849.359 1.414.646 1.414 1.889v9.738c0 1.354-.481 1.666-1.414 1.889v.482h4.826v-.482c-.771-.225-1.496-.534-1.496-1.889v-8.41h.084l9.623 10.979h.514V13.416c0-1.411.705-1.638 1.268-1.889v-.483h-4.514l-.002.483zm5.841-.481l-1.157 3.729.368.253c1.552-2.062 1.976-2.259 4.036-2.259.706 0 .932.057.932.931v9.456c0 1.438-.422 1.663-1.578 1.889v.481h6.211v-.481c-1.131-.227-1.582-.439-1.582-1.889V13.7c0-.874.229-.931.938-.931 2.062 0 2.603.19 4.146 2.259l.367-.253-1.156-3.729h-11.525zm20.658 5.702l-2.623-.592c-1.495-.339-1.974-.771-1.974-1.693 0-1.068.845-1.78 2.705-1.78 2.088 0 3.727.99 4.914 2.354l.356-.254-1.062-3.729h-.687c0 .312-.146.65-.424.65-.621-.339-1.581-.873-3.224-.873-2.938 0-5.229 1.521-5.229 4.288 0 2.11 1.271 3.438 4.035 4.062l2.479.564c1.653.359 2.26.958 2.26 2.004 0 1.438-1.151 2.192-3.051 2.192-2.647 0-4.354-1.383-5.729-2.985l-.368.252 1.146 4.312h.709c0-.228.229-.703.511-.703.646.312 1.755.959 3.774.959 3.401 0 5.812-1.688 5.812-4.567.045-2.711-1.452-3.813-4.33-4.461z"/><path fill="#C00" d="M33.731 10.891V6.578h-6.928l-.874 4.354h2.492l-.798 4.013H25.13l-.864 4.343c-.067.295-.117.508-.147.713-.205 1.332.375 1.265 2.241 1.265l-.853 4.271h-3.261c-3.083 0-5.59-.026-4.939-3.188.103-.483.226-.97.315-1.438l1.165-5.963H16.39l.8-4.012h2.396l.872-4.354h-2.241V0H9.923v13.368H0c.246 3.466 3.313 3.971 4.431 6.433.77 1.697 1.444 4.688 3.694 4.708 1.723.021 1.723-2.229 3.941-2.229 2.215 0 3.199 4.209 5.17 7.675 1.477 2.722 3.93 4.548 6.154 4.704 1.826.127 2.708-.493 2.708-.493-.492-.991-.739-1.98-.739-3.467 0-2.229 1.725-4.455 3.695-5.939 2.708-1.979 5.663-2.729 6.647-2.97v-6.935c0-.001-1.97-1.055-1.97-3.964zM22.432 21.254l2.913-14.682h-3.357l-2.911 14.682h3.355zm3.813-19.325h-3.358l-.642 3.238h3.356l.644-3.238z"/></svg>