<svg xmlns="http://www.w3.org/2000/svg" width="18" height="18" viewBox="0 0 18 18"><path fill="#B9B9B9" d="M8.5 0A8.5 8.5 0 0 0 0 8.499 8.496 8.496 0 0 0 8.5 17c4.701 0 8.5-3.807 8.5-8.501S13.191 0 8.5 0z"/><path fill="#FFF" d="M6.511 8.463s-.303-.023-.303-.704.303-.782.303-.782h3.197v5.416h1.433v1.5h-5.05v-1.5h1.354v-3.93h-.934zm.526-4.125c0-.418.148-.775.447-1.076a1.453 1.453 0 0 1 1.074-.447c.425 0 .785.149 1.079.447.293.301.441.658.441 1.076 0 .421-.148.777-.446 1.073a1.465 1.465 0 0 1-1.074.444c-.413 0-.771-.149-1.071-.451-.3-.297-.45-.653-.45-1.066z"/></svg>