<svg xmlns="http://www.w3.org/2000/svg" width="80" height="1050" viewBox="0 0 80 1050"><path fill="#333" d="M49.282 1038.35l-21.142-36.404c-1.521-2.594-4.551-2.594-6.07 0L.657 1038.891c-1.52 2.59-.313 5.391 2.68 5.391h43.538c2.993-.005 3.927-3.344 2.407-5.932zm-24.286-1.075a2.438 2.438 0 1 1 .002-4.874 2.438 2.438 0 0 1-.002 4.874zm1.828-10.689c-.238.781-1.165 3.455-1.828 3.455-.662 0-1.589-2.674-1.827-3.455-.741-2.262-1.352-5.346-1.352-7.895 0-3.045.927-6.291 3.179-6.291s3.179 3.244 3.179 6.291c0 2.549-.609 5.633-1.351 7.895z"/><path fill="#EA272A" stroke="#FFF" stroke-miterlimit="10" d="M0 900h14v14H0z"/><path fill="#EA272A" stroke="#FFF" stroke-miterlimit="10" d="M3 903h14v14H3z"/><path fill="#EA272A" stroke="#FFF" stroke-miterlimit="10" d="M6 906h14v14H6z"/><path fill="#FFF" d="M11.83 913.315c0 1.538.836 2.906 2.641 2.906 1.254 0 2.014-.552 2.395-1.634h2.051c-.475 2.146-2.299 3.343-4.445 3.343-3.077 0-4.806-2.146-4.806-5.167 0-2.793 1.823-5.187 4.749-5.187 3.097 0 4.996 2.793 4.635 5.737l-7.22.002zm5.054-1.424c-.076-1.366-1.007-2.603-2.47-2.603-1.5 0-2.526 1.14-2.584 2.603h5.054z"/><path d="M22.148 907.665h4.412c2.857 0 3.404 1.849 3.404 3.096 0 1.232-.547 3.081-3.404 3.067h-2.661v3.838h-1.751v-10.001zm1.751 4.734h2.563c.784 0 1.751-.394 1.751-1.653 0-1.316-.798-1.652-1.724-1.652h-2.591l.001 3.305zM31.305 907.665h1.597v1.513h-1.597v-1.513zm0 2.759h1.597v7.242h-1.597v-7.242zM33.908 910.424h1.205v-2.171h1.596v2.171h1.443v1.191h-1.443v3.865c0 .658.057.994.771.994.224 0 .447 0 .672-.057v1.233c-.35.026-.687.084-1.037.084-1.666 0-1.975-.646-2.002-1.851v-4.271h-1.205v-1.188zM44.188 912.848c-.127-.883-.771-1.358-1.653-1.358-.826 0-1.988.435-1.988 2.634 0 1.205.532 2.479 1.919 2.479.926 0 1.569-.615 1.723-1.652h1.598c-.294 1.877-1.457 2.914-3.319 2.914-2.27 0-3.517-1.611-3.517-3.74 0-2.186 1.191-3.896 3.572-3.896 1.682 0 3.108.842 3.264 2.62h-1.599v-.001zM47.082 907.665h1.598v3.712h.027c.393-.658 1.219-1.149 2.172-1.149 1.568 0 2.562.842 2.562 2.467v4.973h-1.598v-4.553c-.027-1.136-.476-1.625-1.414-1.625-1.064 0-1.75.841-1.75 1.905v4.271H47.08l.002-10.001zM55.342 907.665h4.413c2.856 0 3.403 1.849 3.403 3.096 0 1.232-.547 3.081-3.403 3.067h-2.661v3.838h-1.752v-10.001zm1.752 4.734h2.562c.785 0 1.752-.394 1.752-1.653 0-1.316-.799-1.652-1.725-1.652h-2.591l.002 3.305zM70.521 916.055c0 .394.084.547.377.547.1 0 .226 0 .394-.027v1.105a4.008 4.008 0 0 1-1.009.184c-.645 0-1.106-.226-1.232-.883-.631.615-1.652.883-2.508.883-1.303 0-2.479-.7-2.479-2.115 0-1.807 1.441-2.102 2.787-2.255 1.147-.211 2.17-.084 2.17-1.023 0-.826-.854-.979-1.498-.979-.896 0-1.526.363-1.598 1.148H64.33c.111-1.862 1.695-2.41 3.292-2.41 1.415 0 2.899.575 2.899 2.103v3.722zm-1.596-2.017c-.489.322-1.261.309-1.962.435-.686.111-1.303.364-1.303 1.204 0 .715.91.925 1.472.925.7 0 1.793-.363 1.793-1.373v-1.191zM72.281 907.665h1.598v5.687l2.885-2.928h1.963l-2.774 2.662 3.041 4.58h-1.947l-2.214-3.516-.952.924v2.592h-1.598l-.002-10.001z"/><g fill="none" stroke="#C00" stroke-miterlimit="10"><path d="M0 803l6-3 6 3M0 806l6-3 6 3"/></g><g fill="none" stroke="#C00" stroke-miterlimit="10"><path d="M12 703l-6 3-6-3M12 700l-6 3-6-3"/></g><path fill="none" stroke="#FFF" stroke-width="3" d="M2 600l13 15-13 15M15 530L2 515l13-15"/><path fill="#555" d="M13.786 411.814l-3.152-3.15a.763.763 0 0 0-.876-.137l-.673-.682a4.984 4.984 0 0 0 .914-2.855c-.005-2.74-2.246-4.99-5.002-4.99S0 402.25 0 405.001a5.003 5.003 0 0 0 4.997 4.995 4.954 4.954 0 0 0 2.858-.903l.679.688a.72.72 0 0 0 .13.853l3.15 3.148c.289.29.76.29 1.045 0l.927-.914a.758.758 0 0 0 0-1.054zm-8.789-3.664c-1.737 0-3.146-1.412-3.146-3.129a3.15 3.15 0 0 1 3.146-3.146 3.15 3.15 0 0 1 3.147 3.146c.002 1.719-1.41 3.129-3.147 3.129zM20 303H0v-3h20v3zm0 3H0v3h20v-3zm0 6H0v3h20v-3z"/><g><path fill="#565656" d="M8.5 200a8.501 8.501 0 0 0-8.5 8.499 8.497 8.497 0 0 0 8.5 8.502A8.502 8.502 0 0 0 8.5 200z"/><path fill="none" stroke="#FFF" stroke-width="1.5" stroke-linecap="round" d="M8.953 212.001l-3.033-3.5 3.033-3.5"/></g><g fill="#FFF"><path d="M6.318 112.312c0 .933-.745 1.688-1.668 1.688-.924 0-1.666-.756-1.666-1.688s.742-1.688 1.666-1.688a1.677 1.677 0 0 1 1.668 1.688M12.604 112.312c0 .933-.746 1.688-1.666 1.688-.916 0-1.666-.756-1.666-1.688s.746-1.688 1.666-1.688a1.678 1.678 0 0 1 1.666 1.688M12.273 109.827H4.32l-1.771-7.904H.762c-.421 0-.762-.534-.762-.961 0-.428.341-.962.762-.962h3.379l1.772 7.967h6.36c.422 0 .761.535.761.961.002.428-.339.899-.761.899"/><path d="M13.999 102.366H5.818l.994 4.587h5.95z"/></g><g fill="#C00"><path d="M6.318 12.312c0 .933-.745 1.688-1.668 1.688-.924 0-1.666-.756-1.666-1.688s.742-1.688 1.666-1.688a1.677 1.677 0 0 1 1.668 1.688M12.604 12.312c0 .933-.746 1.688-1.666 1.688-.916 0-1.667-.756-1.667-1.688s.746-1.688 1.667-1.688a1.678 1.678 0 0 1 1.666 1.688M12.273 9.827H4.32L2.549 1.923H.762C.341 1.923 0 1.389 0 .962 0 .534.341 0 .762 0h3.379l1.772 7.967h6.36c.422 0 .761.535.761.961.002.428-.339.899-.761.899"/><path d="M13.999 2.366H5.818l.994 4.587h5.95z"/></g></svg>