<svg xmlns="http://www.w3.org/2000/svg" width="18" height="136" viewBox="0 0 18 136"><path fill="#555" d="M10.335 8.999l2.592-2.591c.311-.311.032-.631-.337-.999-.367-.368-.688-.646-.998-.336L9 7.665 6.409 5.073c-.311-.31-.631-.032-1 .336-.367.367-.645.688-.335.999l2.592 2.591-2.59 2.591c-.312.31-.036.633.333.998.369.369.689.646 1 .336L9 10.333l2.591 2.591c.311.311.631.033.998-.334.369-.369.647-.689.335-1l-2.589-2.591z"/><circle fill="#AAA" cx="9" cy="108.999" r="9"/><path fill="#555" d="M10.335 108.999l2.592-2.591c.311-.311.032-.632-.337-1-.367-.367-.688-.645-.998-.336L9 107.664l-2.591-2.592c-.311-.309-.631-.031-1 .336-.367.368-.646.689-.335 1l2.592 2.591-2.59 2.591c-.313.311-.036.633.333.998.369.369.689.646 1 .336L9 110.333l2.591 2.591c.311.311.631.033.998-.334.369-.369.647-.689.335-1l-2.589-2.591z"/></svg>