<svg xmlns="http://www.w3.org/2000/svg" width="22" height="122" viewBox="0 0 22 122"><path fill="#189" d="M17 108.5a8.501 8.501 0 0 1-17 0c0-4.693 3.806-8.5 8.5-8.5 4.693 0 8.5 3.807 8.5 8.5z"/><path fill="#FFF" d="M13.422 108.499c0-.504-.027-.913-.453-.913l-8.927.001c-.435.007-.465.416-.464.92.01.496.031.914.464.906h8.926c.432.006.458-.412.454-.914z"/><g><path fill="#189" d="M17 8.5a8.5 8.5 0 0 1-17 0 8.501 8.501 0 0 1 17 0z"/><path fill="#FFF" d="M13.422 8.497c0-.504-.027-.913-.453-.913H9.42v-3.55c0-.425-.412-.459-.915-.457-.503.001-.914.03-.913.457v3.551H4.041c-.435.007-.465.417-.464.92.01.497.031.914.464.906h3.551v3.548c-.009.434.404.463.904.463.514-.008.915-.028.921-.463l.001-3.548h3.549c.433.007.459-.411.455-.914z"/></g></svg>